<svg width="24" height="24" viewBox="0 0 24 24" fill="none" xmlns="http://www.w3.org/2000/svg">
<g clip-path="url(#clip0_2381_10028)">
<path d="M23.7141 12.2242C23.7141 11.2409 23.6343 10.5234 23.4616 9.7793H12.2336V14.2173H18.8242C18.6914 15.3202 17.9739 16.9811 16.3793 18.0972L16.357 18.2458L19.907 20.996L20.153 21.0205C22.4118 18.9344 23.7141 15.8649 23.7141 12.2242Z" fill="#4285F4"/>
<path d="M12.2336 23.9178C15.4624 23.9178 18.1731 22.8548 20.153 21.0211L16.3793 18.0978C15.3695 18.8021 14.0141 19.2937 12.2336 19.2937C9.07121 19.2937 6.38715 17.2076 5.43035 14.3242L5.29011 14.3361L1.59869 17.193L1.55042 17.3271C3.51695 21.2337 7.55637 23.9178 12.2336 23.9178Z" fill="#34A853"/>
<path d="M5.43029 14.3238C5.17783 13.5797 5.03173 12.7824 5.03173 11.9586C5.03173 11.1347 5.17783 10.3375 5.41701 9.59342L5.41032 9.43494L1.67264 6.53223L1.55035 6.59039C0.739849 8.21149 0.27478 10.0319 0.27478 11.9586C0.27478 13.8853 0.739849 15.7056 1.55035 17.3267L5.43029 14.3238Z" fill="#FBBC05"/>
<path d="M12.2336 4.62403C14.4792 4.62403 15.9939 5.59402 16.8577 6.40461L20.2327 3.10928C18.1599 1.1826 15.4624 0 12.2336 0C7.55637 0 3.51695 2.68406 1.55042 6.59056L5.41707 9.59359C6.38715 6.7102 9.07121 4.62403 12.2336 4.62403Z" fill="#EB4335"/>
</g>
<defs>
<clipPath id="clip0_2381_10028">
<rect width="24" height="24" fill="white"/>
</clipPath>
</defs>
</svg>
